<?xml version="1.0" standalone="no"?>
<!DOCTYPE svg PUBLIC "-//W3C//DTD SVG 20010904//EN"
 "http://www.w3.org/TR/2001/REC-SVG-20010904/DTD/svg10.dtd">
<svg version="1.0" xmlns="http://www.w3.org/2000/svg"
 width="512.000000pt" height="512.000000pt" viewBox="0 0 512.000000 512.000000"
 preserveAspectRatio="xMidYMid meet">

<g transform="translate(0.000000,512.000000) scale(0.100000,-0.100000)"
fill="#000000" stroke="none">
<path d="M2645 5111 c-90 -23 -173 -92 -212 -177 l-24 -54 -927 -2 -927 -3
-50 -25 c-64 -31 -124 -91 -155 -155 -25 -50 -25 -53 -30 -397 l-5 -346 -30
-24 c-46 -35 -64 -58 -93 -118 l-27 -55 -5 -337 -5 -336 -47 -41 c-27 -24 -59
-66 -75 -99 l-28 -57 0 -1325 0 -1325 23 -45 c35 -72 75 -114 144 -151 l63
-34 2005 0 2005 0 63 34 c70 38 101 70 139 145 23 45 27 66 31 171 l4 120 41
20 c184 89 363 264 466 457 282 526 87 1183 -436 1470 l-72 39 -3 212 c-3 209
-3 213 -31 269 -16 33 -48 75 -75 99 l-47 41 -5 336 -5 337 -26 55 c-27 55
-54 89 -102 127 l-26 20 -3 344 -3 344 -34 63 c-61 112 -144 162 -284 170
l-87 5 -20 44 c-31 70 -74 117 -142 154 l-63 34 -425 2 c-234 1 -438 -2 -455
-6z m797 -381 c4 -74 19 -105 72 -144 24 -19 44 -21 177 -24 l149 -3 0 -280 0
-279 -205 0 -204 0 -20 46 c-32 71 -75 118 -143 155 l-63 34 -445 0 -445 0
-52 -27 c-69 -37 -120 -89 -150 -155 l-24 -53 -725 0 -724 0 0 280 0 280 989
2 c982 3 990 3 1017 24 53 39 68 70 72 144 l4 70 358 0 358 0 4 -70z m-320
-880 c4 -74 19 -105 72 -144 26 -20 41 -21 417 -24 l389 -3 0 -274 0 -274
-602 -3 -603 -3 -39 -24 c-50 -31 -75 -87 -76 -166 0 -173 -94 -331 -240 -405
-298 -151 -640 67 -640 407 0 73 -29 135 -78 165 l-37 23 -602 3 -603 3 0 274
0 275 909 2 c901 3 910 3 937 24 53 39 68 70 72 144 l4 70 358 0 358 0 4 -70z
m-1623 -1090 c95 -441 570 -706 992 -554 248 89 436 302 490 554 l11 50 584 0
584 0 0 -129 0 -128 -90 5 c-301 17 -627 -116 -840 -345 -168 -180 -265 -398
-291 -660 l-12 -113 -743 0 -742 0 -4 109 c-3 118 -12 141 -72 185 -39 29
-133 29 -172 0 -68 -51 -69 -53 -69 -294 0 -241 1 -243 69 -294 27 -21 38 -21
913 -26 l885 -5 19 -50 c59 -155 191 -335 326 -444 104 -84 271 -170 395 -206
107 -30 267 -47 359 -39 l69 7 0 -32 0 -31 -1920 0 -1920 0 0 1245 0 1245 584
0 584 0 11 -50z m2679 -536 c463 -95 735 -575 575 -1017 -100 -279 -342 -470
-639 -507 -153 -19 -346 22 -482 101 -74 44 -227 198 -271 272 -215 366 -93
841 270 1058 162 97 362 131 547 93z"/>
<path d="M3943 2150 c-64 -39 -67 -52 -73 -285 l-5 -210 -210 -5 c-181 -4
-215 -8 -238 -23 -96 -63 -89 -212 13 -271 32 -19 55 -21 238 -24 l202 -3 0
-200 c0 -219 3 -235 59 -282 37 -31 99 -43 144 -28 43 15 95 68 107 112 6 18
10 116 10 216 l0 182 203 3 c226 3 241 7 287 76 19 27 25 48 24 89 0 59 -19
93 -74 131 -31 21 -42 22 -236 22 l-203 0 -3 203 c-3 226 -9 249 -78 294 -43
30 -121 31 -167 3z"/>
</g>
</svg>
