<svg width="50" height="50" viewBox="0 0 50 50" fill="none" xmlns="http://www.w3.org/2000/svg">
<g clip-path="url(#clip0_3627_634)">
<rect width="50" height="50" fill="white"/>
<path d="M8.00781 6.54297C8.04004 6.54297 8.07227 6.54297 8.10547 6.54297C8.11204 6.65357 8.11204 6.65357 8.11875 6.76641C8.13964 7.10705 8.16222 7.44756 8.18482 7.78809C8.19168 7.90403 8.19854 8.01997 8.20561 8.13942C8.27901 9.21408 8.46049 10.1993 8.96607 11.1572C9.00021 11.2237 9.03436 11.2901 9.06954 11.3586C9.32324 11.8416 9.60752 12.2788 9.96094 12.6953C10.0224 12.7749 10.0838 12.8544 10.1471 12.9364C11.3455 14.3852 13.3017 15.033 15.105 15.2158C15.8213 15.2744 16.5415 15.2614 17.2596 15.2596C17.4478 15.2599 17.636 15.2603 17.8242 15.2607C18.3306 15.2616 18.8371 15.2612 19.3435 15.2606C19.8763 15.2601 20.4092 15.2606 20.942 15.2609C21.8365 15.2612 22.7309 15.2608 23.6253 15.2598C24.6557 15.2588 25.6862 15.2591 26.7167 15.2602C27.6053 15.2611 28.4939 15.2612 29.3825 15.2607C29.9115 15.2604 30.4406 15.2603 30.9696 15.261C31.4672 15.2616 31.9648 15.2612 32.4624 15.26C32.6438 15.2598 32.8252 15.2599 33.0066 15.2603C35.5362 15.2658 37.8398 14.9205 39.7461 13.0859C41.132 11.5579 41.6942 9.83282 41.8152 7.78809C41.8272 7.60738 41.8272 7.60738 41.8394 7.42302C41.8587 7.12972 41.8771 6.83639 41.8945 6.54297C42.6442 7.17753 43.2167 7.76955 43.6707 8.64868C43.702 8.70783 43.7333 8.76698 43.7656 8.82792C44.3201 9.95287 44.492 11.1131 44.4832 12.3532C44.4837 12.4892 44.4843 12.6251 44.485 12.7611C44.4867 13.1302 44.4859 13.4993 44.4847 13.8684C44.4838 14.2682 44.4851 14.668 44.4862 15.0678C44.4879 15.8493 44.4876 16.6307 44.4864 17.4122C44.4856 18.0477 44.4854 18.6833 44.4859 19.3188C44.4859 19.4095 44.486 19.5002 44.486 19.5937C44.4862 19.778 44.4863 19.9624 44.4864 20.1467C44.4875 21.8721 44.4863 23.5975 44.4842 25.3228C44.4824 26.8009 44.4827 28.2789 44.4845 29.7569C44.4866 31.4764 44.4874 33.196 44.4862 34.9155C44.4861 35.0991 44.486 35.2827 44.4859 35.4664C44.4858 35.6019 44.4858 35.6019 44.4857 35.7401C44.4853 36.3743 44.4859 37.0085 44.4868 37.6427C44.4879 38.4164 44.4876 39.1901 44.4856 39.9638C44.4845 40.358 44.4841 40.7521 44.4854 41.1463C44.4866 41.5081 44.4859 41.8699 44.4839 42.2317C44.4832 42.4225 44.4845 42.6133 44.4858 42.804C44.4758 43.9548 44.2273 45.0838 43.6951 46.1121C43.6623 46.1764 43.6295 46.2407 43.5957 46.307C43.2296 46.9879 42.7402 47.5134 42.1875 48.0469C42.1185 48.1189 42.0495 48.1909 41.9785 48.2651C41.5539 48.6832 41.0895 48.9714 40.564 49.2432C40.4757 49.2897 40.4757 49.2897 40.3857 49.3371C38.869 50.0778 37.3517 50.0562 35.6998 50.0505C35.4403 50.0511 35.1808 50.0518 34.9212 50.0526C34.2925 50.0543 33.6638 50.054 33.0351 50.0529C32.5237 50.052 32.0122 50.0518 31.5007 50.0523C31.4276 50.0523 31.3545 50.0524 31.2792 50.0525C31.1307 50.0526 30.9821 50.0527 30.8336 50.0528C29.4442 50.0539 28.0548 50.0527 26.6654 50.0506C25.4761 50.0488 24.2868 50.0491 23.0975 50.0509C21.7127 50.053 20.328 50.0538 18.9432 50.0526C18.7952 50.0525 18.6472 50.0524 18.4993 50.0523C18.4265 50.0522 18.3537 50.0522 18.2787 50.0521C17.7685 50.0518 17.2583 50.0523 16.7481 50.0532C16.1254 50.0543 15.5027 50.054 14.88 50.052C14.563 50.0509 14.246 50.0507 13.9289 50.0518C12.3375 50.0568 10.8971 50.0083 9.45435 49.2615C9.39002 49.2287 9.32569 49.1959 9.25942 49.1621C8.57851 48.796 8.05303 48.3066 7.51953 47.7539C7.44753 47.6849 7.37552 47.6159 7.30133 47.5449C6.88136 47.1184 6.59475 46.6528 6.32324 46.1243C6.29224 46.0646 6.26124 46.005 6.22931 45.9436C5.69587 44.8457 5.50829 43.7445 5.5168 42.5333C5.51635 42.3965 5.51573 42.2598 5.51496 42.123C5.51334 41.7513 5.51413 41.3796 5.51534 41.0078C5.51623 40.6054 5.51486 40.2029 5.51379 39.8004C5.51206 39.0135 5.51242 38.2267 5.51356 37.4398C5.51444 36.8 5.51456 36.1601 5.51414 35.5202C5.51408 35.4289 5.51402 35.3376 5.51395 35.2436C5.51383 35.0581 5.5137 34.8725 5.51357 34.687C5.51246 32.9502 5.51374 31.2133 5.51584 29.4765C5.51759 27.9884 5.51728 26.5002 5.51548 25.0121C5.51339 23.2812 5.51257 21.5503 5.51377 19.8193C5.51389 19.6345 5.51401 19.4497 5.51414 19.2649C5.5142 19.174 5.51426 19.0831 5.51432 18.9894C5.51465 18.3508 5.51409 17.7122 5.51317 17.0736C5.51207 16.2946 5.51238 15.5157 5.51445 14.7367C5.51547 14.3398 5.51589 13.9429 5.51459 13.546C5.51341 13.1818 5.51408 12.8176 5.51614 12.4534C5.51677 12.2611 5.51552 12.0687 5.51416 11.8764C5.52395 10.7501 5.79257 9.68416 6.30493 8.6792C6.33724 8.61486 6.36954 8.55051 6.40283 8.48422C6.76424 7.80339 7.26375 7.27225 7.8125 6.73828C7.87695 6.67383 7.94141 6.60938 8.00781 6.54297ZM17.157 21.4905C17.1111 21.546 17.0652 21.6015 17.0179 21.6587C16.8784 21.8279 16.7399 21.9978 16.6016 22.168C16.479 22.3171 16.479 22.3171 16.354 22.4693C16.0904 22.7905 15.8275 23.1122 15.5666 23.4356C15.2554 23.8176 15.2554 23.8176 15.0391 23.9258C15.0058 23.808 15.0058 23.808 14.9719 23.6877C14.7173 22.9966 14.4588 22.4079 13.7695 22.0703C13.319 21.9234 13.0068 21.9887 12.5813 22.1653C12.2531 22.3493 12.0786 22.6201 11.9141 22.9492C11.7172 23.8553 12.1928 24.6157 12.5965 25.3912C12.7137 25.6166 12.8276 25.8434 12.9412 26.0706C13.0151 26.216 13.0891 26.3612 13.1634 26.5064C13.1972 26.5735 13.231 26.6405 13.2658 26.7096C13.5395 27.2313 13.8597 27.5992 14.3555 27.9297C14.8491 28.0117 15.233 27.9801 15.6799 27.7527C16.0565 27.4393 16.3524 27.0522 16.655 26.6693C16.9074 26.351 17.168 26.0413 17.4316 25.7324C17.8334 25.2599 18.2282 24.7823 18.6192 24.3008C18.789 24.0947 18.9603 23.8908 19.1341 23.6881C19.1829 23.6312 19.2316 23.5743 19.2818 23.5157C19.3767 23.4052 19.4719 23.2949 19.5675 23.185C20.024 22.6529 20.1635 22.3242 20.1481 21.6282C20.0894 21.1699 19.8545 20.9137 19.519 20.6177C18.4842 20.2127 17.8088 20.6838 17.157 21.4905ZM27.0081 23.2971C26.7082 23.7649 26.6971 24.158 26.7578 24.707C26.9748 25.1491 27.1926 25.3803 27.6367 25.5859C27.945 25.6288 28.2505 25.627 28.5614 25.6254C28.6539 25.6261 28.7463 25.6267 28.8416 25.6274C29.1469 25.6292 29.4521 25.6288 29.7573 25.6283C29.9698 25.6287 30.1822 25.6292 30.3947 25.6298C30.8399 25.6307 31.2851 25.6305 31.7302 25.6295C32.3004 25.6284 32.8706 25.6304 33.4408 25.6332C33.8795 25.635 34.3182 25.635 34.757 25.6344C34.9672 25.6344 35.1774 25.635 35.3876 25.6362C35.6817 25.6376 35.9757 25.6366 36.2697 25.6349C36.3997 25.6364 36.3997 25.6364 36.5322 25.6378C37.0656 25.6314 37.369 25.5492 37.793 25.1953C38.1236 24.8206 38.136 24.4498 38.1203 23.9685C38.0689 23.6125 37.9341 23.4091 37.6953 23.1445C37.1453 22.7457 36.6393 22.7391 35.9777 22.7382C35.8931 22.7377 35.8086 22.7372 35.7215 22.7367C35.442 22.7353 35.1626 22.7346 34.8831 22.7341C34.6885 22.7335 34.4939 22.7329 34.2992 22.7324C33.8911 22.7314 33.4829 22.7308 33.0748 22.7304C32.5529 22.7299 32.031 22.7276 31.5091 22.7248C31.107 22.723 30.7048 22.7225 30.3027 22.7223C30.1104 22.722 29.918 22.7212 29.7257 22.7199C29.456 22.7183 29.1864 22.7185 28.9166 22.7191C28.8379 22.7182 28.7591 22.7173 28.678 22.7164C28.0406 22.721 27.4651 22.8166 27.0081 23.2971ZM12.4023 31.6406C11.9987 32.065 11.8408 32.4074 11.8408 32.9887C12.0194 33.7494 12.6339 34.4231 13.1174 35.0237C13.2309 35.173 13.2309 35.173 13.3789 35.4492C13.3004 35.9426 12.8806 36.3873 12.5916 36.7859C12.4845 36.9347 12.3776 37.0836 12.2707 37.2326C12.2234 37.298 12.1761 37.3634 12.1273 37.4308C11.8372 37.8496 11.8593 38.2743 11.9141 38.7695C12.1253 39.1998 12.3434 39.4725 12.793 39.6484C13.2571 39.7114 13.6404 39.7027 14.0747 39.5203C14.4957 39.1267 14.8314 38.6718 15.1367 38.1836C15.1367 38.1191 15.1367 38.0547 15.1367 37.9883C15.2012 37.9883 15.2656 37.9883 15.332 37.9883C15.3576 38.0425 15.3831 38.0968 15.4095 38.1527C15.5413 38.4058 15.6903 38.6373 15.8508 38.8733C15.9349 38.9989 15.9349 38.9989 16.0206 39.127C16.285 39.4443 16.53 39.6187 16.9399 39.6908C17.4939 39.6917 17.8331 39.6447 18.2617 39.2578C18.5808 38.8962 18.6226 38.5285 18.6073 38.0604C18.4828 37.4278 18.0333 36.9264 17.6449 36.4292C17.5363 36.2885 17.5363 36.2885 17.4255 36.145C17.3569 36.0607 17.2883 35.9763 17.2176 35.8894C17.0898 35.6445 17.0898 35.6445 17.161 35.4113C17.2823 35.1621 17.415 34.9577 17.5819 34.737C17.6669 34.6204 17.6669 34.6204 17.7536 34.5015C17.872 34.3407 17.9918 34.181 18.1129 34.0223C18.4765 33.5172 18.6224 33.163 18.5927 32.5369C18.5127 32.0891 18.2842 31.83 17.9321 31.5613C17.4823 31.3578 17.1992 31.3247 16.7114 31.427C16.098 31.6806 15.6657 32.299 15.4076 32.8926C15.3702 32.998 15.3702 32.998 15.332 33.1055C15.2676 33.1055 15.2031 33.1055 15.1367 33.1055C15.0993 33.0001 15.0993 33.0001 15.0612 32.8926C14.8286 32.3578 14.4512 31.8116 13.942 31.5125C13.3431 31.2851 12.9595 31.3604 12.4023 31.6406ZM26.8616 34.8755C26.6601 35.4207 26.6686 35.932 26.9043 36.4624C27.3078 36.8861 27.7706 37.1225 28.3595 37.159C28.5165 37.1613 28.6736 37.1615 28.8307 37.1599C28.9605 37.1609 28.9605 37.1609 29.0928 37.162C29.3765 37.1637 29.6601 37.1626 29.9438 37.1613C30.1423 37.1615 30.3407 37.1619 30.5392 37.1624C30.9542 37.163 31.3692 37.1621 31.7843 37.1603C32.3149 37.1581 32.8455 37.1594 33.3761 37.1617C33.7856 37.1631 34.1951 37.1627 34.6047 37.1616C34.8003 37.1614 34.9959 37.1617 35.1915 37.1626C35.4654 37.1636 35.7391 37.1621 36.013 37.1599C36.093 37.1607 36.173 37.1615 36.2554 37.1623C36.8092 37.1542 37.2318 37.0277 37.6953 36.7188C38.0218 36.3759 38.1126 36.1064 38.1348 35.6445C38.1141 35.1859 38.014 34.9142 37.6953 34.5703C37.1914 34.2487 36.7713 34.2349 36.1931 34.2379C36.1027 34.2372 36.0123 34.2365 35.9191 34.2359C35.6212 34.2341 35.3233 34.2344 35.0254 34.235C34.8177 34.2346 34.61 34.234 34.4023 34.2334C33.9673 34.2326 33.5323 34.2328 33.0973 34.2338C32.5406 34.2349 31.9839 34.2329 31.4272 34.2301C30.9983 34.2283 30.5695 34.2283 30.1406 34.2289C29.9354 34.2289 29.7302 34.2283 29.525 34.2271C29.2377 34.2256 28.9505 34.2267 28.6633 34.2284C28.5369 34.2269 28.5369 34.2269 28.4079 34.2255C27.7625 34.2333 27.3106 34.383 26.8616 34.8755Z" fill="#213E60"/>
<path d="M15.2924 -0.0150108C15.4207 -0.0156527 15.4207 -0.0156527 15.5517 -0.0163076C15.839 -0.0176139 16.1263 -0.0182182 16.4137 -0.0188166C16.6195 -0.0195883 16.8253 -0.0203958 17.0311 -0.0212365C17.7077 -0.0237965 18.3843 -0.0252922 19.0609 -0.0266844C19.294 -0.0272079 19.5271 -0.027733 19.7602 -0.0282598C20.7302 -0.0303722 21.7003 -0.0322017 22.6703 -0.033301C24.0592 -0.0348855 25.448 -0.0381219 26.8369 -0.0436918C27.8141 -0.0474764 28.7912 -0.0493791 29.7684 -0.0498949C30.3516 -0.050251 30.9349 -0.0514179 31.5181 -0.0545924C32.0674 -0.0575393 32.6167 -0.058143 33.166 -0.0569963C33.3669 -0.0569748 33.5678 -0.0577795 33.7687 -0.0595016C35.4231 -0.0729049 36.6143 0.148974 37.8586 1.32639C38.5278 2.03523 38.9707 2.97923 38.9837 3.95317C38.986 4.11414 38.986 4.11414 38.9884 4.27837C38.9928 4.77089 38.9968 5.2634 38.999 5.75594C39.0006 6.01459 39.0033 6.27323 39.007 6.53185C39.0124 6.90676 39.0145 7.28156 39.016 7.6565C39.0182 7.77048 39.0204 7.88446 39.0227 8.00189C39.0193 9.32751 38.5382 10.3453 37.6385 11.2961C36.8106 12.0776 35.8205 12.4167 34.7076 12.4174C34.6221 12.4178 34.5365 12.4182 34.4483 12.4187C34.161 12.42 33.8737 12.4206 33.5863 12.4212C33.3805 12.422 33.1747 12.4228 32.9689 12.4236C32.2923 12.4262 31.6157 12.4277 30.9391 12.4291C30.706 12.4296 30.4729 12.4301 30.2398 12.4306C29.2698 12.4328 28.2997 12.4346 27.3297 12.4357C25.9408 12.4373 24.552 12.4405 23.1631 12.4461C22.1859 12.4499 21.2088 12.4518 20.2316 12.4523C19.6483 12.4526 19.0651 12.4538 18.4819 12.457C17.9326 12.4599 17.3833 12.4605 16.834 12.4594C16.6331 12.4594 16.4322 12.4602 16.2313 12.4619C14.5769 12.4753 13.3857 12.2534 12.1414 11.076C11.4722 10.3671 11.0293 9.42315 11.0163 8.44921C11.0147 8.3419 11.0132 8.23458 11.0116 8.12401C11.0072 7.63149 11.0032 7.13898 11.001 6.64644C10.9994 6.38779 10.9967 6.12915 10.993 5.87053C10.9876 5.49562 10.9855 5.12082 10.984 4.74588C10.9818 4.6319 10.9796 4.51792 10.9773 4.40049C10.9807 3.07488 11.4618 2.05708 12.3615 1.10628C13.1894 0.324747 14.1795 -0.0143352 15.2924 -0.0150108Z" fill="#213E60"/>
</g>
<defs>
<clipPath id="clip0_3627_634">
<rect width="50" height="50" fill="white"/>
</clipPath>
</defs>
</svg>
