<svg width="50" height="50" viewBox="0 0 50 50" fill="none" xmlns="http://www.w3.org/2000/svg">
<rect width="50" height="50" fill="white"/>
<path d="M29.0039 2.34369C29.0895 2.35941 29.175 2.37513 29.2632 2.39133C34.6125 3.40565 39.7574 6.36202 43.0664 10.7421C43.1129 10.8028 43.1594 10.8635 43.2073 10.926C46.2841 14.9624 48.0053 19.8725 47.9797 24.9572C47.9795 25.0333 47.9793 25.1095 47.9791 25.1879C47.9564 30.3311 46.2317 35.3593 42.9687 39.3554C42.8892 39.4549 42.8096 39.5543 42.7277 39.6568C41.5964 41.049 40.3146 42.3003 38.8672 43.3593C38.757 43.4419 38.6469 43.5246 38.5368 43.6073C35.5552 45.819 32.0728 47.1738 28.418 47.7539C28.3448 47.7664 28.2716 47.7789 28.1962 47.7919C25.8743 48.1807 23.303 48.0715 20.9961 47.6562C20.9087 47.6405 20.8213 47.6248 20.7313 47.6086C16.3172 46.7772 12.2701 44.7012 9.05609 41.571C8.89595 41.4152 8.73433 41.2611 8.57238 41.1071C7.90136 40.4616 7.31712 39.7695 6.75902 39.0247C6.65446 38.8856 6.54793 38.7479 6.44111 38.6104C3.51347 34.7532 1.99599 29.863 2.02026 25.0427C2.02047 24.9665 2.02068 24.8904 2.0209 24.812C2.0405 20.3621 3.31394 15.8871 5.85937 12.207C5.92256 12.1154 5.92256 12.1154 5.98702 12.022C7.36744 10.0423 9.01665 8.19058 10.9688 6.76078C11.1325 6.64078 11.2944 6.51855 11.4563 6.39605C14.3961 4.20231 17.8786 2.8422 21.4844 2.24604C21.555 2.2335 21.6256 2.22096 21.6984 2.20803C24.0357 1.80553 26.6822 1.90473 29.0039 2.34369ZM23.4375 11.1328C23.0702 11.6638 22.9374 12.1076 22.9355 12.7455C22.9349 12.855 22.9344 12.9645 22.9338 13.0774C22.9337 13.1971 22.9336 13.3168 22.9335 13.4402C22.933 13.5666 22.9325 13.693 22.932 13.8233C22.9307 14.17 22.9301 14.5166 22.9297 14.8633C22.9294 15.0801 22.929 15.2969 22.9285 15.5137C22.9272 16.1925 22.9263 16.8714 22.9259 17.5503C22.9254 18.3329 22.9237 19.1154 22.9209 19.8979C22.9188 20.5035 22.9178 21.1091 22.9177 21.7147C22.9176 22.0761 22.917 22.4374 22.9153 22.7988C22.9133 23.2023 22.9138 23.6057 22.9144 24.0092C22.9135 24.1281 22.9126 24.2471 22.9117 24.3696C22.9159 25.2274 23.0014 25.8816 23.6173 26.5274C23.6954 26.61 23.7735 26.6927 23.854 26.7778C23.9422 26.8679 24.0303 26.9579 24.1211 27.0507C24.1928 27.1246 24.1928 27.1246 24.2659 27.1999C24.6552 27.6007 25.0488 27.9971 25.4433 28.3927C25.5052 28.4549 25.5671 28.5171 25.6309 28.5812C25.9575 28.9092 26.2844 29.237 26.6115 29.5646C26.9479 29.9015 27.2833 30.2393 27.6185 30.5773C27.8782 30.8388 28.1386 31.0997 28.3992 31.3604C28.5231 31.4847 28.6469 31.6092 28.7704 31.7339C28.943 31.9082 29.1165 32.0816 29.2902 32.2547C29.3403 32.3056 29.3903 32.3566 29.4419 32.409C29.9819 32.943 30.5303 33.2615 31.2996 33.3106C31.8937 33.2864 32.3941 33.0355 32.8125 32.6171C33.227 32.0414 33.3747 31.4647 33.2714 30.7552C32.984 29.7875 32.0892 29.1402 31.2725 28.6359C29.5237 27.5314 27.5824 25.9956 27.0699 23.8971C26.4799 20.6987 26.7634 17.2263 26.9717 13.9996C26.9788 13.8844 26.9858 13.7693 26.9931 13.6506C27.0065 13.4374 27.0214 13.2242 27.0381 13.0111C27.0841 12.2802 26.9867 11.7854 26.5869 11.1572C26.0972 10.6674 25.6319 10.4827 24.9504 10.4392C24.3563 10.4635 23.8558 10.7144 23.4375 11.1328Z" fill="#213E60"/>
</svg>
