<svg width="50" height="50" viewBox="0 0 50 50" fill="none" xmlns="http://www.w3.org/2000/svg">
<g clip-path="url(#clip0_3626_627)">
<rect width="50" height="50" fill="white"/>
<path d="M6.63281 16.5112C7.18993 17.8877 7.73884 19.2677 8.30866 20.6389C8.5059 21.1136 8.73331 21.5789 8.98529 22.0269C9.42491 22.8086 10.1625 23.0967 11.0109 23.1397C11.526 23.1658 12.0436 23.1445 12.5976 23.1445C12.5976 23.3249 12.5976 23.467 12.5976 23.6091C12.5976 31.6644 12.5979 39.7196 12.5974 47.7748C12.5973 48.843 11.8913 49.7563 10.8502 50.0625C10.4143 50.0976 9.98887 50.0976 9.5077 50.0625C8.40432 49.7536 7.72002 48.7923 7.71832 47.4843C7.71042 41.4337 7.71483 35.3831 7.71483 29.3325C7.71483 29.1609 7.71483 28.9893 7.71483 28.8413C7.38213 28.8413 7.1147 28.8413 6.83592 28.8413C6.83592 29.0518 6.83592 29.2297 6.83592 29.4075C6.83592 35.4581 6.84008 41.5087 6.82615 47.5593C6.82527 47.9442 6.73759 48.3498 6.59658 48.7089C6.32354 49.4043 5.74281 49.8072 5.07811 50.0976C4.65263 50.0976 4.22715 50.0976 3.7563 50.0976C2.80411 49.7304 2.1984 49.0976 1.98553 48.1256C1.95478 47.9853 1.95435 47.8364 1.95433 47.6914C1.953 36.2173 1.95041 24.7431 1.95654 13.2689C1.9573 11.84 3.13164 10.5316 4.66733 10.5437C6.40869 10.5574 8.15047 10.5646 9.89163 10.5415C11.3966 10.5215 12.6403 11.8813 12.601 13.2697C12.5817 13.9478 12.5976 14.627 12.5976 15.3994C12.1382 15.0753 11.7433 14.8029 11.3552 14.5212C10.9718 14.2428 10.5952 13.9548 10.1349 13.737C10.4128 14.0999 10.6898 14.4637 10.969 14.8257C11.5207 15.5408 12.0617 16.2648 12.6365 16.9609C12.7462 17.0936 12.9905 17.1764 13.1735 17.178C15.0451 17.1935 16.9168 17.1798 18.7885 17.1904C19.8537 17.1965 20.9576 18.0223 20.9066 19.4356C20.8652 20.5813 19.9712 21.4843 18.794 21.4843C16.5643 21.4844 14.3343 21.4647 12.1049 21.4933C11.1028 21.5061 10.3445 21.1589 9.74022 20.3493C8.81976 19.1161 7.84684 17.922 6.89791 16.71C6.84072 16.637 6.79856 16.5522 6.70464 16.4288C6.62712 16.3718 6.59437 16.3589 6.56163 16.346C6.58535 16.4011 6.60908 16.4561 6.63281 16.5112Z" fill="#213E60"/>
<path d="M30.6116 50.0977C29.9543 49.7915 29.3811 49.4808 29.0764 48.7821C28.8126 48.1772 28.7977 47.6064 28.9405 46.993C29.5499 44.3763 30.1542 41.7583 30.7598 39.1407C31.0535 37.8713 31.2688 36.5771 31.663 35.3397C31.9983 34.2873 32.538 33.2999 32.9892 32.2846C33.587 30.9399 34.1968 29.6003 34.7754 28.2474C34.8694 28.0276 34.8622 27.7476 34.8431 27.4999C34.808 27.0435 34.7147 26.5914 34.683 26.1349C34.6776 26.0562 34.8442 25.9148 34.9531 25.8868C35.8956 25.6447 36.8572 25.4678 37.7858 25.1827C39.2268 24.7401 40.2512 23.5537 40.3441 21.9632C40.4062 20.9011 40.5905 19.8465 40.7063 18.787C40.7912 18.0101 40.8537 17.2307 40.8556 16.4322C40.5887 17.1557 40.314 17.8764 40.0566 18.6033C39.5871 19.9295 39.1635 21.2732 38.6508 22.5822C38.3559 23.3353 37.6438 23.639 36.8991 23.8254C34.5858 24.4045 32.2704 24.9755 29.9578 25.5576C29.0096 25.7963 28.1084 25.4062 27.6172 24.6715C27.0741 23.8589 27.3663 22.5402 28.0323 22.1378C28.5177 21.8446 29.0772 21.6442 29.6287 21.4957C31.1439 21.0876 32.6594 20.6573 34.2006 20.379C35.0312 20.229 35.4447 19.9121 35.6799 19.0952C36.0857 17.6859 36.626 16.3153 37.141 14.8802C37.1761 14.7793 37.1801 14.7266 37.184 14.6739C37.1411 14.7047 37.0982 14.7354 37.0552 14.7662C36.0959 16.0914 35.1366 17.4166 34.1773 18.7418C34.1417 18.7327 34.1062 18.7237 34.0706 18.7146C34.0093 17.995 33.9469 17.2755 33.887 16.5558C33.8206 15.7585 33.748 14.9616 33.6932 14.1634C33.586 12.6016 34.9254 11.1635 36.6506 11.1145C37.9552 11.0775 39.2526 10.8255 40.5578 10.7583C41.743 10.6973 42.9741 10.5504 43.9054 11.6146C44.3856 12.1633 44.6524 12.7866 44.717 13.4836C44.8177 14.5706 44.8401 15.6647 44.926 16.7533C45.0391 18.187 45.1842 19.6181 45.31 21.0507C45.3521 21.53 45.3807 22.0106 45.4095 22.4909C45.4768 23.6136 45.5307 24.7373 45.6095 25.8592C45.653 26.4792 45.8089 27.0995 45.7837 27.7144C45.7454 28.6504 45.6129 29.5843 45.4851 30.5143C45.3517 31.4854 45.1788 32.4512 45.0188 33.4186C44.8667 34.3386 44.7496 35.267 44.5412 36.1742C44.3626 36.952 44.6213 37.6157 44.8861 38.3045C45.6208 40.2159 46.3471 42.1308 47.0663 44.0482C47.4554 45.0855 47.9003 46.1105 48.1809 47.1777C48.5163 48.4534 47.9259 49.6228 46.5924 50.0626C46.1566 50.0977 45.7311 50.0977 45.25 50.0627C44.5919 49.8694 44.1263 49.5094 43.8652 48.9584C43.5783 48.3529 43.3657 47.7118 43.1267 47.0839C42.1475 44.5118 41.2067 41.9243 40.1771 39.3726C39.696 38.1805 39.5266 37.0237 39.8296 35.7658C40.0329 34.9219 40.1022 34.046 40.2349 33.1849C40.3795 32.2461 40.5289 31.308 40.6746 30.3693C40.7637 29.795 40.8495 29.2201 40.9389 28.6318C40.6947 28.6635 40.5033 28.7332 40.3303 28.7019C39.9008 28.6242 39.7409 28.8698 39.5929 29.2006C38.8449 30.8734 38.0808 32.5391 37.3329 34.212C36.8922 35.1977 36.3882 36.1658 36.064 37.1898C35.7285 38.2499 35.5887 39.3709 35.3407 40.4601C34.8315 42.6975 34.2805 44.9257 33.7995 47.169C33.5299 48.4264 33.2622 49.6373 31.8359 50.0977C31.4429 50.0977 31.0499 50.0977 30.6116 50.0977Z" fill="#213E60"/>
<path d="M31.8817 50.0976C33.2622 49.6372 33.5299 48.4263 33.7995 47.169C34.2806 44.9257 34.8315 42.6974 35.3408 40.46C35.5887 39.3708 35.7285 38.2499 36.064 37.1897C36.3882 36.1658 36.8922 35.1976 37.3329 34.2119C38.0808 32.539 38.8449 30.8733 39.593 29.2005C39.7409 28.8697 39.9008 28.6241 40.3303 28.7018C40.5033 28.7332 40.6947 28.6634 40.9389 28.6317C40.8495 29.2201 40.7637 29.7949 40.6746 30.3693C40.5289 31.3079 40.3795 32.246 40.2349 33.1848C40.1022 34.0459 40.0329 34.9218 39.8296 35.7657C39.5266 37.0236 39.696 38.1804 40.1771 39.3725C41.2067 41.9242 42.1475 44.5117 43.1267 47.0838C43.3657 47.7117 43.5783 48.3528 43.8653 48.9583C44.1263 49.5093 44.5919 49.8693 45.2047 50.0627C40.7857 50.0976 36.3566 50.0976 31.8817 50.0976Z" fill="white"/>
<path d="M9.42693 0.0976562C10.0351 0.38155 10.6324 0.613216 11.1529 0.960169C12.2485 1.69058 12.7671 2.76335 12.9 4.06988C13.0464 5.50933 12.5838 6.72076 11.5745 7.69527C9.89639 9.3154 7.11559 9.27633 5.47282 7.69121C3.90554 6.17892 3.67197 3.84532 4.80183 2.04697C5.43318 1.04208 6.39336 0.395562 7.6052 0.134211C8.20519 0.0976562 8.79319 0.0976562 9.42693 0.0976562Z" fill="#213E60"/>
<path d="M5.1239 50.0976C5.74284 49.8072 6.32357 49.4043 6.5966 48.7089C6.73762 48.3498 6.82529 47.9442 6.82618 47.5593C6.8401 41.5087 6.83595 35.4581 6.83595 29.4075C6.83595 29.2297 6.83595 29.0518 6.83595 28.8413C7.11472 28.8413 7.38215 28.8413 7.71485 28.8413C7.71485 28.9893 7.71485 29.1609 7.71485 29.3325C7.71485 35.3831 7.71044 41.4337 7.71834 47.4843C7.72005 48.7923 8.40434 49.7536 9.46234 50.0625C8.03833 50.0976 6.604 50.0976 5.1239 50.0976Z" fill="white"/>
<path d="M27.7768 26.8354C28.9401 27.3562 30.0716 27.1644 31.1921 26.8169C31.5234 28.1881 30.5484 29.0387 29.3907 29.0239C25.3561 28.9723 21.3203 28.9874 17.2852 29.0134C15.9673 29.0219 15.3787 28.3277 15.3411 27.115C15.3008 25.8151 15.332 24.5131 15.332 23.1446C16.1786 23.1446 17.0174 23.1663 17.8546 23.1375C18.4903 23.1157 19.1391 23.0977 19.7549 22.9582C21.0657 22.6611 21.9184 21.7636 22.3224 20.536C22.519 19.9387 22.8815 19.5601 23.3087 19.1285C23.5557 19.4045 23.8025 19.6801 24.0627 19.9708C24.3484 19.6402 24.6 19.3489 24.8741 19.0317C25.2067 19.3931 25.4467 19.654 25.7538 19.9877C25.7538 17.6432 25.7538 15.3961 25.7538 13.086C26.6327 13.086 27.4716 13.0739 28.3099 13.0901C28.9025 13.1015 29.5002 13.1099 30.0848 13.1945C30.7544 13.2914 31.2252 13.8651 31.2385 14.5085C31.2728 16.1661 31.25 17.8249 31.25 19.484C30.218 19.7637 29.1991 20.0114 28.1978 20.3169C25.9199 21.0119 24.8888 24.0765 26.705 25.9609C27.0142 26.2817 27.395 26.5336 27.7768 26.8354Z" fill="#213E60"/>
<path d="M40.6953 8.37669C39.7283 9.19986 38.6333 9.66613 37.4076 9.55218C35.5801 9.38228 34.2878 8.38848 33.6206 6.66628C33.5085 6.37707 33.3832 6.34419 33.1423 6.34559C32.2483 6.35076 31.3542 6.34976 30.4601 6.34691C29.8603 6.34499 29.4024 5.86827 29.3945 5.2456C29.3863 4.59511 29.8438 4.10411 30.4668 4.10224C31.3609 4.09955 32.255 4.09798 33.1491 4.10388C33.3941 4.1055 33.5129 4.05925 33.6232 3.77639C34.2331 2.21206 35.3433 1.25941 37.0462 0.963567C39.1572 0.596826 41.307 1.94636 41.852 3.9609C42.29 5.57998 41.9612 7.11096 40.6953 8.37669Z" fill="#213E60"/>
<path d="M17.024 13.0859C18.3321 13.0859 19.5947 13.0859 20.8777 13.0859C20.8777 14.1062 20.8777 15.0907 20.8777 16.1859C19.125 15.0975 17.2081 15.7015 15.3768 15.495C15.1954 14.2687 15.7075 13.1624 17.024 13.0859Z" fill="#213E60"/>
<path d="M6.64987 16.4912C6.6091 16.4562 6.58537 16.4011 6.56165 16.3461C6.59439 16.3589 6.62714 16.3718 6.67856 16.4064C6.68713 16.4425 6.67702 16.4568 6.64987 16.4912Z" fill="white"/>
<path d="M37.0697 14.788C37.0982 14.7353 37.1411 14.7046 37.184 14.6738C37.1801 14.7265 37.1761 14.7792 37.1448 14.8414C37.1063 14.8372 37.0953 14.8236 37.0697 14.788Z" fill="white"/>
</g>
<defs>
<clipPath id="clip0_3626_627">
<rect width="50" height="50" fill="white"/>
</clipPath>
</defs>
</svg>
