<svg width="60" height="60" viewBox="0 0 60 60" fill="none" xmlns="http://www.w3.org/2000/svg">
<rect width="60" height="60" fill="white"/>
<path d="M24.4043 16.1426C24.7625 16.4357 25.0509 16.7543 25.3464 17.1094C25.7033 17.5266 26.0679 17.8669 26.5273 18.1684C26.6275 18.2345 26.7276 18.3006 26.8308 18.3687C26.9383 18.4388 27.0457 18.5089 27.1564 18.5811C27.3237 18.6912 27.3237 18.6912 27.4944 18.8035C27.8508 19.0376 28.2076 19.271 28.5645 19.5044C28.8028 19.661 29.0412 19.8176 29.2795 19.9743C30.0871 20.5058 30.0871 20.5058 30.8983 21.0317C31.0654 21.1412 31.2303 21.2542 31.3909 21.3731C32.1494 21.9125 33.0416 22.067 33.9326 22.2734C34.1101 22.3159 34.2875 22.3587 34.4649 22.4015C34.9298 22.5135 35.3951 22.6237 35.8606 22.7333C36.6051 22.9087 37.349 23.086 38.0926 23.265C38.3506 23.3267 38.6088 23.387 38.867 23.4473C40.9375 23.9375 40.9375 23.9375 41.543 24.5581C41.9346 25.1945 41.9178 25.8759 41.8359 26.6016C41.5999 27.2098 41.2088 27.6495 40.6641 28.0078C39.8494 28.2794 39.0332 28.1066 38.2233 27.8934C38.1273 27.8693 38.0312 27.8452 37.9323 27.8203C37.6219 27.7423 37.3119 27.6626 37.002 27.583C36.5702 27.4738 36.1382 27.3656 35.706 27.258C35.599 27.2313 35.492 27.2046 35.3817 27.1771C34.7341 27.0173 34.0856 26.8713 33.4309 26.7435C33.3538 26.7283 33.2766 26.7132 33.1972 26.6976C32.8462 26.6294 32.495 26.5641 32.1429 26.5024C30.5893 26.2088 29.3711 25.3955 28.0957 24.5068C27.961 24.414 27.8263 24.3212 27.6915 24.2285C27.3667 24.0047 27.0425 23.7801 26.7187 23.5547C26.7946 24.6375 26.9173 25.712 27.0629 26.7872C27.0876 26.9724 27.1112 27.1577 27.1338 27.3432C27.167 27.615 27.2034 27.8862 27.2406 28.1575C27.2547 28.2809 27.2547 28.2809 27.2692 28.4068C27.3555 28.9991 27.5556 29.2676 28.0078 29.6484C28.1231 29.7495 28.2383 29.8506 28.3571 29.9547C28.4821 30.0604 28.6074 30.1659 28.7329 30.271C28.8331 30.3554 28.8331 30.3554 28.9354 30.4415C29.4228 30.8503 29.9168 31.2503 30.4152 31.6457C30.8357 31.9806 31.2511 32.3218 31.6667 32.6628C31.8797 32.8375 32.093 33.0117 32.3067 33.1856C32.6324 33.4508 32.9569 33.7174 33.2812 33.9844C33.3439 34.0355 33.4065 34.0866 33.471 34.1392C33.9233 34.5088 34.3677 34.886 34.8047 35.2734C34.8985 35.3561 34.9923 35.4387 35.089 35.5238C35.5847 36.014 35.8166 36.4737 36.0161 37.1406C36.0405 37.2217 36.0649 37.3028 36.0901 37.3864C36.4247 38.5084 36.7332 39.6382 37.0436 40.7671C37.1105 41.0094 37.1774 41.2517 37.2443 41.4941C37.4189 42.1261 37.593 42.7583 37.7671 43.3905C37.9791 44.1603 38.1916 44.9299 38.404 45.6996C38.5691 46.2978 38.7341 46.8961 38.8989 47.4944C38.9292 47.6043 38.9595 47.7142 38.9907 47.8274C39.0468 48.0311 39.1029 48.2348 39.159 48.4385C39.1841 48.5296 39.2092 48.6207 39.2351 48.7145C39.2705 48.8429 39.2705 48.8429 39.3065 48.974C39.3718 49.2074 39.4399 49.4398 39.5083 49.6723C39.7189 50.4366 39.7586 51.3375 39.4336 52.0752C38.9712 52.8426 38.2869 53.3837 37.4236 53.6206C36.503 53.7922 35.6038 53.7284 34.8047 53.2031C34.0299 52.4986 33.7073 51.6877 33.3641 50.7166C33.3089 50.565 33.2535 50.4136 33.1979 50.2621C33.0811 49.9429 32.9655 49.6233 32.851 49.3033C32.6728 48.8057 32.4907 48.3097 32.308 47.8137C31.8099 46.4584 31.3171 45.1021 30.862 43.7315C30.1236 41.5045 30.1236 41.5045 28.346 40.0815C27.9546 39.868 27.6158 39.5862 27.2681 39.3091C27.144 39.2137 27.02 39.1183 26.8959 39.023C26.4303 38.653 26.3303 38.4786 26.2354 37.8955C26.2157 37.778 26.1961 37.6605 26.1758 37.5394C26.1616 37.449 26.1474 37.3587 26.1328 37.2656C26.1211 37.3486 26.1093 37.4316 26.0972 37.517C25.9995 38.2029 25.8982 38.8881 25.7922 39.5728C25.7144 40.0777 25.6458 40.5806 25.5945 41.0889C25.3923 42.8017 24.5844 43.9785 23.5784 45.3499C23.245 45.8062 22.9235 46.2701 22.602 46.7348C22.3696 47.0707 22.1355 47.4055 21.9012 47.7402C21.4518 48.3856 21.0152 49.0391 20.5811 49.6948C19.6053 51.1632 19.6053 51.1632 19.1602 51.8042C19.0744 51.9288 18.9885 52.0535 18.9001 52.1819C18.3897 52.7893 17.7788 53.1125 16.9922 53.2031C16.0281 53.217 15.3512 52.9259 14.5605 52.4048C13.9691 51.8297 13.7817 51.2844 13.6858 50.4868C13.7508 49.6334 14.1557 48.8737 14.5605 48.1348C14.6655 47.9392 14.7703 47.7436 14.875 47.5479C14.9323 47.4412 14.9895 47.3345 15.0485 47.2246C15.4021 46.5595 15.7461 45.8893 16.0913 45.2197C16.2275 44.9557 16.3638 44.6918 16.5001 44.4278C16.5357 44.3572 16.5713 44.2866 16.608 44.2138C16.8442 43.7486 17.0962 43.2971 17.3616 42.8478C18.4541 40.9507 18.9013 39.1437 19.2246 37.0121C19.2759 36.6825 19.3324 36.3539 19.389 36.0252C19.4443 35.7025 19.4975 35.3795 19.55 35.0563C19.5863 34.8332 19.6234 34.6102 19.6605 34.3872C19.9157 32.6992 19.621 31.0892 19.3713 29.4174C19.3161 29.0473 19.2616 28.6771 19.2073 28.3068C19.0531 27.2552 18.8977 26.2037 18.7414 25.1524C18.6454 24.5065 18.5504 23.8604 18.456 23.2141C18.4201 22.9696 18.3838 22.7251 18.3471 22.4807C17.7379 18.4217 17.7379 18.4217 18.8306 16.8237C20.2868 15.0843 22.5337 15.1354 24.4043 16.1426Z" fill="#213E60"/>
<path d="M43.5937 14.1796C43.9892 14.4898 44.1316 14.7496 44.2395 15.2346C44.2816 15.4222 44.2816 15.4222 44.3245 15.6136C44.5124 16.5387 44.6906 17.4652 44.8627 18.3934C44.9045 18.618 44.9463 18.8426 44.9881 19.0672C45.0751 19.5352 45.1617 20.0034 45.2481 20.4716C45.3587 21.0704 45.4709 21.669 45.5835 22.2675C45.6702 22.7301 45.7558 23.1929 45.841 23.6558C45.8819 23.8766 45.9232 24.0974 45.965 24.3181C46.0231 24.6262 46.0797 24.9347 46.1358 25.2432C46.1532 25.3334 46.1706 25.4236 46.1886 25.5165C46.2858 26.0628 46.2981 26.5206 46.1719 27.0703C45.7567 27.5275 45.3418 27.6302 44.7464 27.7427C44.6674 27.7579 44.5885 27.7732 44.5071 27.7888C44.3412 27.8204 44.1751 27.8512 44.0089 27.8812C43.7545 27.9273 43.5006 27.9761 43.2468 28.0254C42.0046 28.2593 42.0046 28.2593 41.6016 28.1249C41.663 28.0169 41.663 28.0169 41.7256 27.9066C41.7789 27.8119 41.8323 27.7172 41.8872 27.6196C41.9402 27.5258 41.9932 27.432 42.0479 27.3353C42.4198 26.6293 42.4578 25.6956 42.2246 24.9334C41.9015 24.3275 41.4628 23.9103 40.8259 23.6762C39.8775 23.3885 38.9227 23.1447 37.958 22.9197C37.6017 22.8363 37.2459 22.751 36.89 22.6659C36.2311 22.5082 35.572 22.3513 34.9121 22.1977C34.4494 22.0899 33.9873 21.9797 33.5255 21.8678C33.3502 21.8258 33.1748 21.7848 32.9991 21.7446C32.7549 21.6887 32.5115 21.6298 32.2681 21.57C32.1296 21.5374 31.9911 21.5047 31.8483 21.471C31.5234 21.3281 31.5234 21.3281 31.3647 21.0409C31.2126 20.4402 31.0967 19.8348 30.9814 19.226C30.9411 19.0208 30.9411 19.0208 30.9 18.8115C30.8619 18.6127 30.8619 18.6127 30.8231 18.4098C30.8 18.2896 30.7769 18.1694 30.7532 18.0455C30.6842 17.5631 30.6539 17.1433 30.8057 16.6772C31.5708 15.8445 33.4256 15.8102 34.5003 15.6101C34.7215 15.5686 34.9427 15.5271 35.1638 15.4855C35.6258 15.3989 36.0879 15.3128 36.55 15.227C37.1394 15.1175 37.7285 15.0064 38.3175 14.8948C38.7736 14.8087 39.23 14.7236 39.6865 14.6388C39.9037 14.5983 40.1208 14.5574 40.3378 14.5161C42.9418 14.0221 42.9418 14.0221 43.5937 14.1796ZM38.3084 16.0656C38.1664 16.0921 38.0244 16.1185 37.8781 16.1457C37.7292 16.1737 37.5802 16.2016 37.4268 16.2304C37.2769 16.2584 37.127 16.2863 36.9727 16.3151C36.6015 16.3843 36.2304 16.4538 35.8594 16.5234C35.8875 16.8067 35.9158 17.0899 35.9446 17.3732C35.964 17.5681 35.9822 17.7631 35.9984 17.9583C36.0649 18.9916 36.0649 18.9916 36.6133 19.8124C36.9471 19.9642 37.2619 20.0668 37.6172 20.1562C37.8519 20.2333 38.0864 20.3111 38.3203 20.3906C38.4022 20.3073 38.4841 20.2241 38.5684 20.1383C38.6751 20.0306 38.7817 19.9229 38.8916 19.812C38.9976 19.7046 39.1037 19.5971 39.2129 19.4865C39.4922 19.2187 39.4922 19.2187 39.7266 19.1015C39.6606 18.0278 39.4678 16.9901 39.2578 15.9374C38.9319 15.9374 38.6288 16.0057 38.3084 16.0656Z" fill="#213E60"/>
<path d="M25.6517 7.18414C25.8984 7.38281 25.8984 7.38281 26.1452 7.69363C26.6435 8.09779 27.0911 8.05146 27.7148 8.04932C29.044 8.0612 29.044 8.0612 29.5313 8.32031C29.4141 8.67187 29.4141 8.67187 29.2213 8.77487C28.4752 9.01013 27.727 9.14651 26.9531 9.25781C27.0691 9.33516 27.1852 9.4125 27.3047 9.49219C27.6845 10.4494 27.4886 11.8064 27.101 12.7231C26.5286 13.8253 25.6562 14.6672 24.4922 15.1172C23.2445 15.5024 21.9852 15.4366 20.8022 14.8572C19.6698 14.1531 18.8369 13.1403 18.5156 11.8359C18.3308 10.4333 18.5228 9.17349 19.3433 7.99805C20.9595 6.07103 23.6212 5.78985 25.6517 7.18414Z" fill="#213E60"/>
<path d="M32.5781 27.3047C33.2776 27.3789 33.9424 27.5106 34.6243 27.6814C34.7265 27.7067 34.8287 27.732 34.9339 27.7581C35.1481 27.8113 35.3622 27.8648 35.5762 27.9185C35.9046 28.0008 36.2333 28.0816 36.562 28.1623C36.7707 28.2143 36.9792 28.2664 37.1878 28.3186C37.2862 28.3427 37.3846 28.3667 37.4859 28.3915C38.1763 28.5669 38.1763 28.5669 38.4375 28.8281C37.5121 29.0548 36.5818 29.2523 35.647 29.436C35.5435 29.457 35.4401 29.478 35.3335 29.4995C33.8326 29.7893 33.8326 29.7893 33.186 29.502C32.6986 28.8892 32.5781 28.0744 32.5781 27.3047Z" fill="#213E60"/>
</svg>
